PathFileType	4	(X/Y/Z)	Patient4_TMGait_0pt2_02_left_07.trc.trc
DataRate	CameraRate	NumFrames	NumMarkers	Units	OrigDataRate	OrigDataStartFrame	OrigNumFrames
42.682926829268	42.682926829268	4	33	mm	42.682926829268	71	       141
Frame#	Time	R.Midfoot.Superior			Sacral			L.Shoulder			Chest			R.Shoulder			Neck			R.ASIS			L.ASIS			R.Thigh.Superior			R.Thigh.Lateral			R.Thigh.Inferior			R.Patella			L.Thigh.Superior			L.Thigh.Lateral			L.Thigh.Inferior			L.Patella			L.Shank.Superior			L.Shank.Lateral			L.Shank.Inferior			R.Shank.Superior			R.Shank.Lateral			R.Shank.Inferior			R.Heel			R.Midfoot.Lateral			R.Toe			L.Heel			L.Midfoot.Lateral			L.Midfoot.Superior			L.Toe			L.Elbow			L.Wrist			R.Elbow			R.Wrist			
		X1	Y1	Z1	X2	Y2	Z2	X3	Y3	Z3	X4	Y4	Z4	X5	Y5	Z5	X6	Y6	Z6	X7	Y7	Z7	X8	Y8	Z8	X9	Y9	Z9	X10	Y10	Z10	X11	Y11	Z11	X12	Y12	Z12	X13	Y13	Z13	X14	Y14	Z14	X15	Y15	Z15	X16	Y16	Z16	X17	Y17	Z17	X18	Y18	Z18	X19	Y19	Z19	X20	Y20	Z20	X21	Y21	Z21	X22	Y22	Z22	X23	Y23	Z23	X24	Y24	Z24	X25	Y25	Z25	X26	Y26	Z26	X27	Y27	Z27	X28	Y28	Z28	X29	Y29	Z29	X30	Y30	Z30	X31	Y31	Z31	X32	Y32	Z32	X33	Y33	Z33	

71	17.260000000000	1130.818473831420	118.884457274371	615.686583688676	800.355128903734	1016.394364783914	398.600745780999	1063.164554722292	1429.749933349000	268.734468527117	1112.912559601134	1351.824605450346	448.115913824457	997.004066619200	1435.144924303676	596.235347949920	1007.967283530080	1491.442518109748	418.984031489616	1000.295970138363	940.292657731215	560.172241111206	1038.952902104192	954.982475935236	287.048425602504	1068.764585176404	765.445836449218	536.193437965654	1016.755838814914	649.022819510753	609.501402591938	1103.936469783245	602.968236983228	533.661181436715	1130.120861535065	516.640728182204	555.176095688608	1056.610406910218	735.573626371286	329.342275858390	965.785596461739	621.246896170112	262.716446282302	1030.231199080058	542.831810241064	343.493921358778	1022.099396898783	473.717007874497	354.562700901799	985.416357818248	404.739139849508	344.277074758020	887.486462955431	298.811789719761	291.576568223797	917.178274947420	186.266937912819	370.673733338969	1101.698437825643	428.291076341495	570.263448244164	1032.333383605894	331.230107786170	644.119516948614	1082.784804484871	231.162736282836	596.719543024353	959.522595491469	54.506336994051	587.968673226930	1049.960060867961	46.910509884819	653.451335215210	1253.560116053640	75.403295630295	630.341411219052	773.035086234410	38.971702202034	412.043996359032	846.953944333747	35.861049626249	331.391455417611	931.963155931371	95.410579086913	359.406032096767	1059.330786043196	40.509862821450	329.304791289263	1204.723973744597	1144.378090778490	110.644852682034	1457.577868564717	1095.186080054136	155.129193842094	797.030549213716	1144.124278975659	662.774130786390	728.126492332642	891.082357069441	651.279347212258	
72	17.283428571429	1151.237402339618	117.429878329269	616.618850540309	801.548356723529	1015.975073061231	400.621686119738	1065.224254508172	1428.984795792278	272.663573637734	1113.178183095866	1351.735001331399	452.746269714679	995.939030731433	1435.672409931240	599.414066959701	1008.386329904495	1491.158393153020	422.151981589168	999.597518290203	939.339013834921	564.397163497325	1041.075974678832	954.762962038751	291.602559292512	1066.958604653862	763.720087365421	541.643611107151	1012.851210572753	647.146874142600	613.560556397216	1100.828266840466	601.559652825710	538.484001763760	1126.684206560512	517.772921503219	558.536324185747	1056.107620376011	734.433322969787	333.222579871725	964.391202704585	621.468392999621	264.726068882366	1027.038657307224	541.906040854603	345.554672406364	1017.851091376887	473.069349628301	356.177881846352	981.322752131465	404.494043191050	345.395579654884	883.139808375686	298.965549775781	292.279966122757	912.623792849198	186.102890991523	371.117519700193	1103.489793133255	428.594125923915	573.291300703801	1040.105718753544	326.828153280062	647.516062321823	1096.017651241354	229.320249655208	599.014947062876	981.382207561869	46.800583189454	590.676063199914	1073.361093449953	41.265196029314	654.341463731847	1276.270708988671	78.193706717599	628.249586490252	768.307097634743	38.816403164008	412.015386494047	842.196988380266	35.755718308702	331.382141966691	927.199081348543	95.366013740094	359.478106894530	1054.591683072521	40.531533982206	329.332022896929	1211.304868026673	1146.985396493185	115.073245973526	1466.164437607336	1111.248406392503	160.209301752657	795.014348946904	1145.633163299437	663.741709091585	726.788669004172	892.332392465477	650.114802197200	
73	17.306857142857	1166.745898565869	116.068529046587	616.767883169372	803.147833111710	1015.091077304074	403.426221097441	1066.928210302035	1428.044697543006	276.978637752079	1113.627315859565	1351.444003894360	457.594184694056	995.315793580611	1435.751547278640	603.147596631376	1008.800220433896	1490.581064253096	425.849897651934	999.746264349683	937.964219344376	568.760236105491	1043.369307319412	954.407364926906	296.346403723021	1066.415400828876	761.714506411430	546.792673093707	1010.374314652449	644.826057830481	617.213208510538	1099.125634991335	599.881619318838	542.760859331678	1124.224394721938	517.964750538771	561.375822797965	1056.162068279084	733.167411676154	337.102880588685	963.519606114075	621.507789789256	267.004971904736	1024.570164295060	540.839276072796	347.725767729015	1014.405075220335	472.197087541172	357.910281088633	977.858209693302	404.031828034872	346.691382729620	879.204789878468	299.113114317026	293.127366666540	908.290118170518	185.850448993143	371.619775753073	1105.170554470542	428.155598424872	575.813276533365	1046.537596597898	323.040459170481	650.260401619483	1106.246785734851	227.726091991043	600.641226149066	997.949606154620	42.021139665371	592.683142069141	1091.034969556868	37.486583683047	654.704478944783	1293.006024712787	79.347907346452	625.714884962847	763.578848098053	38.678521529719	411.983068186367	837.447651417368	35.655481500925	331.378225097267	922.447563337552	95.323049246791	359.549329890020	1049.850970262416	40.538152558908	329.349565781773	1217.132202691332	1149.188120118282	119.774628879395	1473.162786652291	1125.705443800529	165.374033377629	794.707022434782	1145.664614187658	665.759057997528	728.103545003910	891.867410943775	650.419421728857	
74	17.330285714286	1177.331472073703	114.598971419531	616.141050491074	805.152983345973	1013.848666036849	407.025210749050	1068.298512855682	1427.014946014488	281.667740654568	1114.297749404571	1351.038019098564	462.657280440898	995.159618940258	1435.476577939721	607.440504438861	1009.238274352273	1489.793553152254	430.072236707326	1000.789230046242	936.302545840807	573.268953125282	1045.856228062599	953.971395305203	301.259005999229	1067.236216135009	759.616012769131	551.519323527503	1009.533948944370	642.262467082181	620.399316763513	1098.991135636880	598.115438969284	546.404500829404	1123.019677138342	517.344131296692	563.662960785714	1056.743634992045	731.802742575192	340.935414669771	963.068684840329	621.414262367596	269.552945760756	1022.736790737938	539.670657162057	349.988025907628	1011.667808117947	471.148166816823	359.747114178828	974.939392520302	403.406016290851	348.147942674765	875.613228497174	299.293520002841	294.113361461050	904.148978709984	185.549616942524	372.168075525916	1106.929045349886	427.034512077025	577.797719756684	1051.667120643708	319.807104646507	652.312765512985	1113.529179367150	226.177656259790	601.560558452666	1009.104324218627	39.593284564824	593.943054395250	1102.915400677422	35.236088699131	654.614661218203	1303.975667825967	78.823483688808	622.949798781029	758.851589848029	38.585506628816	411.943613659788	832.709081954224	35.578059914032	331.378504509574	917.716334182074	95.294508870460	359.611329307719	1045.108008791012	40.527450803581	329.355409396030	1222.186524648953	1151.016076459226	124.702965975411	1478.719162325127	1138.489801868265	170.584421156346	795.935214506229	1144.472169161940	668.925965816790	731.680193837108	890.003380989142	652.384458148103	
